{
	"asset": {
		"generator": "Tilt Brush 23.3.d548293cc",
		"version": "2.0",
		"copyright": "Unknown."
	},
	"buffers": [
		{
			"byteLength": 2839056,
			"uri": "sketch.bin"
		}
	],
	"accessors": [
		{
			"bufferView": 2,
			"byteOffset": 0,
			"componentType": 5126,
			"count": 22182,
			"max": [ 1.66307485, 0.752017438, 1.68081856 ],
			"min": [ -1.97638822, -0.38137421, -1.72693574 ],
			"type": "VEC3"
		},
		{
			"bufferView": 2,
			"byteOffset": 266184,
			"componentType": 5126,
			"count": 22182,
			"type": "VEC3"
		},
		{
			"bufferView": 1,
			"byteOffset": 0,
			"componentType": 5121,
			"normalized": true,
			"count": 22182,
			"type": "VEC4"
		},
		{
			"bufferView": 2,
			"byteOffset": 532368,
			"componentType": 5126,
			"count": 22182,
			"type": "VEC3"
		},
		{
			"bufferView": 2,
			"byteOffset": 798552,
			"componentType": 5126,
			"count": 22182,
			"type": "VEC3"
		},
		{
			"bufferView": 2,
			"byteOffset": 532368,
			"componentType": 5126,
			"count": 22182,
			"type": "VEC2"
		},
		{
			"bufferView": 0,
			"byteOffset": 0,
			"componentType": 5123,
			"count": 22182,
			"max": [ 22181 ],
			"min": [ 0 ],
			"type": "SCALAR"
		},
		{
			"bufferView": 2,
			"byteOffset": 1064736,
			"componentType": 5126,
			"count": 4062,
			"max": [ 1.11825442, 0.519550025, 1.19398844 ],
			"min": [ -1.53408086, -0.398573756, -1.37890208 ],
			"type": "VEC3"
		},
		{
			"bufferView": 2,
			"byteOffset": 1113480,
			"componentType": 5126,
			"count": 4062,
			"type": "VEC3"
		},
		{
			"bufferView": 1,
			"byteOffset": 88728,
			"componentType": 5121,
			"normalized": true,
			"count": 4062,
			"type": "VEC4"
		},
		{
			"bufferView": 3,
			"byteOffset": 0,
			"componentType": 5126,
			"count": 4062,
			"type": "VEC4"
		},
		{
			"bufferView": 2,
			"byteOffset": 1162224,
			"componentType": 5126,
			"count": 4062,
			"type": "VEC3"
		},
		{
			"bufferView": 2,
			"byteOffset": 1210968,
			"componentType": 5126,
			"count": 4062,
			"type": "VEC3"
		},
		{
			"bufferView": 2,
			"byteOffset": 1162224,
			"componentType": 5126,
			"count": 4062,
			"type": "VEC2"
		},
		{
			"bufferView": 0,
			"byteOffset": 44364,
			"componentType": 5123,
			"count": 11466,
			"max": [ 4061 ],
			"min": [ 0 ],
			"type": "SCALAR"
		},
		{
			"bufferView": 2,
			"byteOffset": 1259712,
			"componentType": 5126,
			"count": 5346,
			"max": [ 0.533662021, 2.76359582, 0.662713826 ],
			"min": [ -1.1821084, 0.0631216094, -0.874790609 ],
			"type": "VEC3"
		},
		{
			"bufferView": 2,
			"byteOffset": 1323864,
			"componentType": 5126,
			"count": 5346,
			"type": "VEC3"
		},
		{
			"bufferView": 1,
			"byteOffset": 104976,
			"componentType": 5121,
			"normalized": true,
			"count": 5346,
			"type": "VEC4"
		},
		{
			"bufferView": 3,
			"byteOffset": 64992,
			"componentType": 5126,
			"count": 5346,
			"type": "VEC4"
		},
		{
			"bufferView": 2,
			"byteOffset": 1388016,
			"componentType": 5126,
			"count": 5346,
			"type": "VEC3"
		},
		{
			"bufferView": 2,
			"byteOffset": 1452168,
			"componentType": 5126,
			"count": 5346,
			"type": "VEC3"
		},
		{
			"bufferView": 2,
			"byteOffset": 1388016,
			"componentType": 5126,
			"count": 5346,
			"type": "VEC2"
		},
		{
			"bufferView": 0,
			"byteOffset": 67296,
			"componentType": 5123,
			"count": 15750,
			"max": [ 5345 ],
			"min": [ 0 ],
			"type": "SCALAR"
		},
		{
			"bufferView": 2,
			"byteOffset": 1516320,
			"componentType": 5126,
			"count": 17538,
			"max": [ 0.731940508, 2.76521683, 0.828320324 ],
			"min": [ -1.36377239, 1.27891195, -1.17075503 ],
			"type": "VEC3"
		},
		{
			"bufferView": 2,
			"byteOffset": 1726776,
			"componentType": 5126,
			"count": 17538,
			"type": "VEC3"
		},
		{
			"bufferView": 1,
			"byteOffset": 126360,
			"componentType": 5121,
			"normalized": true,
			"count": 17538,
			"type": "VEC4"
		},
		{
			"bufferView": 2,
			"byteOffset": 1937232,
			"componentType": 5126,
			"count": 17538,
			"type": "VEC3"
		},
		{
			"bufferView": 2,
			"byteOffset": 2147688,
			"componentType": 5126,
			"count": 17538,
			"type": "VEC3"
		},
		{
			"bufferView": 2,
			"byteOffset": 1937232,
			"componentType": 5126,
			"count": 17538,
			"type": "VEC2"
		},
		{
			"bufferView": 0,
			"byteOffset": 98796,
			"componentType": 5123,
			"count": 17538,
			"max": [ 17537 ],
			"min": [ 0 ],
			"type": "SCALAR"
		}
	],
	"bufferViews": [
		{
			"buffer": 0,
			"byteLength": 133872,
			"byteOffset": 0,
			"target": 34963
		},
		{
			"buffer": 0,
			"byteLength": 196512,
			"byteOffset": 133872,
			"byteStride": 4,
			"target": 34962
		},
		{
			"buffer": 0,
			"byteLength": 2358144,
			"byteOffset": 330384,
			"byteStride": 12,
			"target": 34962
		},
		{
			"buffer": 0,
			"byteLength": 150528,
			"byteOffset": 2688528,
			"byteStride": 16,
			"target": 34962
		}
	],
	"meshes": [
		{
			"name": "brush_MatteHull_g0_b0",
			"primitives": [
				{
					"attributes": {
						"POSITION": 0,
						"NORMAL": 1,
						"COLOR_0": 2,
						"_TB_TIMESTAMP": 4,
						"_TB_UNITY_TEXCOORD_0": 3,
						"TEXCOORD_0": 5
					},
					"indices": 6,
					"material": 0,
					"mode": 4
				}
			]
		},
		{
			"name": "brush_Spikes_g0_b0",
			"primitives": [
				{
					"attributes": {
						"POSITION": 7,
						"NORMAL": 8,
						"COLOR_0": 9,
						"TANGENT": 10,
						"_TB_TIMESTAMP": 12,
						"_TB_UNITY_TEXCOORD_0": 11,
						"TEXCOORD_0": 13
					},
					"indices": 14,
					"material": 1,
					"mode": 4
				}
			]
		},
		{
			"name": "brush_Spikes_g1_b0",
			"primitives": [
				{
					"attributes": {
						"POSITION": 15,
						"NORMAL": 16,
						"COLOR_0": 17,
						"TANGENT": 18,
						"_TB_TIMESTAMP": 20,
						"_TB_UNITY_TEXCOORD_0": 19,
						"TEXCOORD_0": 21
					},
					"indices": 22,
					"material": 1,
					"mode": 4
				}
			]
		},
		{
			"name": "brush_MatteHull_g1_b0",
			"primitives": [
				{
					"attributes": {
						"POSITION": 23,
						"NORMAL": 24,
						"COLOR_0": 25,
						"_TB_TIMESTAMP": 27,
						"_TB_UNITY_TEXCOORD_0": 26,
						"TEXCOORD_0": 28
					},
					"indices": 29,
					"material": 0,
					"mode": 4
				}
			]
		}
	],
	"materials": [
		{
			"alphaMode": "OPAQUE",
			"alphaCutoff": 0.5,
			"doubleSided": true,
			"name": "brush_MatteHull",
			"extensions": {
				"GOOGLE_tilt_brush_material": {
					"guid": "79348357-432d-4746-8e29-0e25c112e3aa"
				}
			}
		},
		{
			"alphaMode": "OPAQUE",
			"name": "brush_Spikes",
			"extensions": {
				"GOOGLE_tilt_brush_material": {
					"guid": "cf7f0059-7aeb-53a4-2b67-c83d863a9ffa"
				}
			}
		}
	],
	"nodes": [
		{
			"name": "brush_MatteHull_g0_b0",
			"mesh": 0
		},
		{
			"name": "node_SceneLight_0_i1",
			"matrix": [0.898794, -0.2191856, -0.3796406, 0, 0.4383712, 0.449397, 0.7783785, 0, -1.490116E-08, -0.8660254, 0.4999999, 0, -1.37247, -10.81325, 1.12837, 1]
		},
		{
			"name": "node_SceneLight_1_i2",
			"matrix": [0.7660444, 0.4924039, -0.4131759, 0, 0.6427876, -0.5868242, 0.4924039, 0, 8.940697E-08, -0.6427876, -0.7660446, 0, -1.37247, -10.95337, 1.923005, 1]
		},
		{
			"name": "brush_Spikes_g0_b0",
			"mesh": 1
		},
		{
			"name": "node_group_1",
			"children": [
				5,
				6
			]
		},
		{
			"name": "brush_Spikes_g1_b0",
			"mesh": 2
		},
		{
			"name": "brush_MatteHull_g1_b0",
			"mesh": 3
		}
	],
	"scene": 0,
	"scenes": [
		{
			"nodes": [
				0,
				1,
				2,
				3,
				4
			],
			"extras": {

			}
		}
	],
	"extensionsUsed": [
		"GOOGLE_tilt_brush_material"
	]
}